<?xml version="1.0" encoding="UTF-8" standalone="no"?>
<!DOCTYPE score-partwise PUBLIC "-//Recordare//DTD MusicXML 3.0 Partwise//EN" "http://www.musicxml.org/dtds/partwise.dtd">
<score-partwise version="3.0">
  <movement-title>Little Waltz</movement-title>
  <identification>
    <rights>?</rights>
    <encoding>
      <software>Finale 2014.5 for Mac</software>
      <software>Dolet 6.9 for Finale</software>
      <supports attribute="new-system" element="print" type="yes" value="yes"/>
      <supports attribute="new-page" element="print" type="yes" value="yes"/>
      <supports element="accidental" type="yes"/>
      <supports element="beam" type="yes"/>
      <supports element="stem" type="yes"/>
    </encoding>
  </identification>
  <defaults>
    <scaling>
      <millimeters>7.9551</millimeters>
      <tenths>40</tenths>
    </scaling>
    <page-layout>
      <page-height>1529</page-height>
      <page-width>1167</page-width>
      <page-margins type="both">
        <left-margin>50</left-margin>
        <right-margin>45</right-margin>
        <top-margin>50</top-margin>
        <bottom-margin>84</bottom-margin>
      </page-margins>
    </page-layout>
    <system-layout>
      <system-margins>
        <left-margin>0</left-margin>
        <right-margin>0</right-margin>
      </system-margins>
      <system-distance>87</system-distance>
      <top-system-distance>43</top-system-distance>
    </system-layout>
    <staff-layout>
      <staff-distance>55</staff-distance>
    </staff-layout>
    <appearance>
      <line-width type="stem">1.4583</line-width>
      <line-width type="beam">5</line-width>
      <line-width type="staff">1.4583</line-width>
      <line-width type="light barline">1.4583</line-width>
      <line-width type="heavy barline">5</line-width>
      <line-width type="leger">1.4583</line-width>
      <line-width type="ending">1.4583</line-width>
      <line-width type="wedge">1.4583</line-width>
      <line-width type="enclosure">1.4583</line-width>
      <line-width type="tuplet bracket">1.4583</line-width>
      <note-size type="grace">60</note-size>
      <note-size type="cue">60</note-size>
      <distance type="hyphen">60</distance>
      <distance type="beam">8</distance>
    </appearance>
    <music-font font-family="Maestro,engraved" font-size="22.6"/>
    <word-font font-family="Times New Roman" font-size="11.3"/>
  </defaults>
  <credit page="1">
    <credit-type>title</credit-type>
    <credit-words default-x="586" default-y="1486" font-size="22" halign="center" valign="top">Little Waltz</credit-words>
  </credit>
  <part-list>
    <score-part id="P1">
      <part-name print-object="no">MusicXML Part</part-name>
      <score-instrument id="P1-I1">
        <instrument-name>SmartMusic SoftSynth</instrument-name>
        <virtual-instrument/>
      </score-instrument>
      <midi-device>SmartMusic SoftSynth</midi-device>
      <midi-instrument id="P1-I1">
        <midi-channel>1</midi-channel>
        <midi-program>1</midi-program>
        <volume>80</volume>
        <pan>0</pan>
      </midi-instrument>
    </score-part>
  </part-list>
  <!--=========================================================-->
  <part id="P1">
    <measure number="1" width="358">
      <print>
        <system-layout>
          <top-system-distance>225</top-system-distance>
        </system-layout>
        <staff-layout number="2">
          <staff-distance>61</staff-distance>
        </staff-layout>
      </print>
      <attributes>
        <divisions>8</divisions>
        <key>
          <fifths>1</fifths>
          <mode>major</mode>
        </key>
        <time>
          <beats>3</beats>
          <beat-type>4</beat-type>
        </time>
        <staves>2</staves>
        <clef number="1">
          <sign>G</sign>
          <line>2</line>
        </clef>
        <clef number="2">
          <sign>F</sign>
          <line>4</line>
        </clef>
        <staff-details number="1">
          <staff-size>110</staff-size>
        </staff-details>
        <staff-details number="2">
          <staff-size>110</staff-size>
        </staff-details>
      </attributes>
      <direction placement="below">
        <direction-type>
          <dynamics default-x="99" default-y="-78" halign="center">
            <mp/>
          </dynamics>
        </direction-type>
        <staff>1</staff>
        <sound dynamics="69"/>
      </direction>
      <direction directive="yes" placement="above">
        <direction-type>
          <words default-y="43" font-size="15.5" font-weight="bold" xml:space="preserve">Moderato  M.M.  </words>
        </direction-type>
        <direction-type>
          <metronome font-family="EngraverTextT" font-size="15.5" font-weight="normal">
            <beat-unit>quarter</beat-unit>
            <per-minute>60 - 108</per-minute>
          </metronome>
        </direction-type>
        <staff>1</staff>
        <sound tempo="108"/>
      </direction>
      <note default-x="121">
        <pitch>
          <step>B</step>
          <octave>4</octave>
        </pitch>
        <duration>12</duration>
        <voice>1</voice>
        <type>quarter</type>
        <dot/>
        <stem default-y="-61">down</stem>
        <staff>1</staff>
        <notations>
          <technical>
            <fingering default-x="-13" default-y="11" placement="above">3</fingering>
          </technical>
        </notations>
      </note>
      <note default-x="226">
        <pitch>
          <step>G</step>
          <octave>4</octave>
        </pitch>
        <duration>4</duration>
        <voice>1</voice>
        <type>eighth</type>
        <stem default-y="6.5">up</stem>
        <staff>1</staff>
        <notations>
          <technical>
            <fingering default-x="-22" default-y="13" placement="above">1</fingering>
          </technical>
        </notations>
      </note>
      <note default-x="269">
        <pitch>
          <step>G</step>
          <octave>4</octave>
        </pitch>
        <duration>4</duration>
        <voice>1</voice>
        <type>eighth</type>
        <stem default-y="11">up</stem>
        <staff>1</staff>
        <beam number="1">begin</beam>
        <notations>
          <technical>
            <fingering default-x="-26" default-y="18" placement="above">1</fingering>
          </technical>
        </notations>
      </note>
      <note default-x="313">
        <pitch>
          <step>B</step>
          <octave>4</octave>
        </pitch>
        <duration>4</duration>
        <voice>1</voice>
        <type>eighth</type>
        <stem default-y="17">up</stem>
        <staff>1</staff>
        <beam number="1">end</beam>
        <notations>
          <technical>
            <fingering default-x="-31" default-y="25" placement="above">3</fingering>
          </technical>
        </notations>
      </note>
      <backup>
        <duration>24</duration>
      </backup>
      <note default-x="121">
        <pitch>
          <step>D</step>
          <octave>4</octave>
        </pitch>
        <duration>8</duration>
        <voice>2</voice>
        <type>quarter</type>
        <stem default-y="-22.5">down</stem>
        <staff>2</staff>
        <notations>
          <slur bezier-x="24" bezier-y="12" default-x="8" default-y="28" number="1" placement="above" type="start"/>
          <technical>
            <fingering default-x="-12" default-y="-58" placement="below">1</fingering>
          </technical>
        </notations>
      </note>
      <note default-x="191">
        <pitch>
          <step>G</step>
          <octave>3</octave>
        </pitch>
        <duration>8</duration>
        <voice>2</voice>
        <type>quarter</type>
        <stem default-y="-45">down</stem>
        <staff>2</staff>
        <notations>
          <slur bezier-x="-15" bezier-y="24" default-x="7" default-y="6" number="1" type="stop"/>
          <technical>
            <fingering default-x="-19" default-y="-56" placement="below">5</fingering>
          </technical>
        </notations>
      </note>
      <note default-x="270">
        <rest/>
        <duration>8</duration>
        <voice>2</voice>
        <type>quarter</type>
        <staff>2</staff>
      </note>
    </measure>
    <!--=======================================================-->
    <measure number="2" width="253">
      <note default-x="17">
        <pitch>
          <step>B</step>
          <octave>4</octave>
        </pitch>
        <duration>12</duration>
        <voice>1</voice>
        <type>quarter</type>
        <dot/>
        <stem default-y="-61">down</stem>
        <staff>1</staff>
        <notations>
          <technical>
            <fingering default-x="-36" default-y="11" placement="above">3</fingering>
          </technical>
        </notations>
      </note>
      <note default-x="122">
        <pitch>
          <step>G</step>
          <octave>4</octave>
        </pitch>
        <duration>4</duration>
        <voice>1</voice>
        <type>eighth</type>
        <stem default-y="6.5">up</stem>
        <staff>1</staff>
        <notations>
          <technical>
            <fingering default-x="-45" default-y="13" placement="above">1</fingering>
          </technical>
        </notations>
      </note>
      <note default-x="165">
        <pitch>
          <step>G</step>
          <octave>4</octave>
        </pitch>
        <duration>4</duration>
        <voice>1</voice>
        <type>eighth</type>
        <stem default-y="11">up</stem>
        <staff>1</staff>
        <beam number="1">begin</beam>
        <notations>
          <technical>
            <fingering default-x="-49" default-y="18" placement="above">1</fingering>
          </technical>
        </notations>
      </note>
      <note default-x="208">
        <pitch>
          <step>B</step>
          <octave>4</octave>
        </pitch>
        <duration>4</duration>
        <voice>1</voice>
        <type>eighth</type>
        <stem default-y="17">up</stem>
        <staff>1</staff>
        <beam number="1">end</beam>
        <notations>
          <technical>
            <fingering default-x="-54" default-y="25" placement="above">3</fingering>
          </technical>
        </notations>
      </note>
      <backup>
        <duration>24</duration>
      </backup>
      <note default-x="17">
        <pitch>
          <step>D</step>
          <octave>4</octave>
        </pitch>
        <duration>8</duration>
        <voice>2</voice>
        <type>quarter</type>
        <stem default-y="-22.5">down</stem>
        <staff>2</staff>
        <notations>
          <slur bezier-x="24" bezier-y="12" default-x="11" default-y="28" number="1" placement="above" type="start"/>
          <technical>
            <fingering default-x="-35" default-y="-56" placement="below">1</fingering>
          </technical>
        </notations>
      </note>
      <note default-x="87">
        <pitch>
          <step>G</step>
          <octave>3</octave>
        </pitch>
        <duration>8</duration>
        <voice>2</voice>
        <type>quarter</type>
        <stem default-y="-45">down</stem>
        <staff>2</staff>
        <notations>
          <slur bezier-x="-14" bezier-y="24" default-x="10" default-y="6" number="1" type="stop"/>
          <technical>
            <fingering default-x="-42" default-y="-56" placement="below">5</fingering>
          </technical>
        </notations>
      </note>
      <note default-x="166">
        <rest/>
        <duration>8</duration>
        <voice>2</voice>
        <type>quarter</type>
        <staff>2</staff>
      </note>
    </measure>
    <!--=======================================================-->
    <measure number="3" width="222">
      <note default-x="17">
        <pitch>
          <step>A</step>
          <octave>4</octave>
        </pitch>
        <duration>8</duration>
        <voice>1</voice>
        <type>quarter</type>
        <stem default-y="12">up</stem>
        <staff>1</staff>
        <notations>
          <technical>
            <fingering default-x="-60" default-y="17" placement="above">2</fingering>
          </technical>
        </notations>
      </note>
      <note default-x="85">
        <pitch>
          <step>B</step>
          <octave>4</octave>
        </pitch>
        <duration>8</duration>
        <voice>1</voice>
        <type>quarter</type>
        <stem default-y="-61">down</stem>
        <staff>1</staff>
        <notations>
          <technical>
            <fingering default-x="-66" default-y="11" placement="above">3</fingering>
          </technical>
        </notations>
      </note>
      <note default-x="153">
        <pitch>
          <step>A</step>
          <octave>4</octave>
        </pitch>
        <duration>8</duration>
        <voice>1</voice>
        <type>quarter</type>
        <stem default-y="12">up</stem>
        <staff>1</staff>
        <notations>
          <technical>
            <fingering default-x="-72" default-y="17" placement="above">2</fingering>
          </technical>
        </notations>
      </note>
      <backup>
        <duration>24</duration>
      </backup>
      <note default-x="17">
        <pitch>
          <step>C</step>
          <octave>4</octave>
        </pitch>
        <duration>8</duration>
        <voice>2</voice>
        <type>quarter</type>
        <stem default-y="-28">down</stem>
        <staff>2</staff>
        <notations>
          <technical>
            <fingering default-x="-60" default-y="-56" placement="below">2</fingering>
          </technical>
        </notations>
      </note>
      <note default-x="85">
        <pitch>
          <step>D</step>
          <octave>4</octave>
        </pitch>
        <duration>8</duration>
        <voice>2</voice>
        <type>quarter</type>
        <stem default-y="-22.5">down</stem>
        <staff>2</staff>
        <notations>
          <technical>
            <fingering default-x="-65" default-y="-56" placement="below">1</fingering>
          </technical>
        </notations>
      </note>
      <note default-x="153">
        <pitch>
          <step>C</step>
          <octave>4</octave>
        </pitch>
        <duration>8</duration>
        <voice>2</voice>
        <type>quarter</type>
        <stem default-y="-28">down</stem>
        <staff>2</staff>
        <notations>
          <technical>
            <fingering default-x="-72" default-y="-56" placement="below">2</fingering>
          </technical>
        </notations>
      </note>
    </measure>
    <!--=======================================================-->
    <measure number="4" width="240">
      <note default-x="14">
        <pitch>
          <step>G</step>
          <octave>4</octave>
        </pitch>
        <duration>12</duration>
        <voice>1</voice>
        <type>quarter</type>
        <dot/>
        <stem default-y="6.5">up</stem>
        <staff>1</staff>
        <notations>
          <technical>
            <fingering default-x="-80" default-y="9" placement="above">1</fingering>
          </technical>
        </notations>
      </note>
      <note default-x="114">
        <pitch>
          <step>B</step>
          <octave>4</octave>
        </pitch>
        <duration>4</duration>
        <voice>1</voice>
        <type>eighth</type>
        <stem default-y="-61">down</stem>
        <staff>1</staff>
        <notations>
          <technical>
            <fingering default-x="-88" default-y="10" placement="above">3</fingering>
          </technical>
        </notations>
      </note>
      <note default-x="156">
        <pitch>
          <step>B</step>
          <octave>4</octave>
        </pitch>
        <duration>4</duration>
        <voice>1</voice>
        <type>eighth</type>
        <stem default-y="-60.5">down</stem>
        <staff>1</staff>
        <beam number="1">begin</beam>
        <notations>
          <technical>
            <fingering default-x="-92" default-y="11" placement="above">3</fingering>
          </technical>
        </notations>
      </note>
      <note default-x="197">
        <pitch>
          <step>D</step>
          <octave>5</octave>
        </pitch>
        <duration>4</duration>
        <voice>1</voice>
        <type>eighth</type>
        <stem default-y="-55">down</stem>
        <staff>1</staff>
        <beam number="1">end</beam>
        <notations>
          <technical>
            <fingering default-x="-95" default-y="11" placement="above">5</fingering>
          </technical>
        </notations>
      </note>
      <backup>
        <duration>24</duration>
      </backup>
      <note default-x="14">
        <pitch>
          <step>B</step>
          <octave>3</octave>
        </pitch>
        <duration>8</duration>
        <voice>2</voice>
        <type>quarter</type>
        <stem default-y="-33.5">down</stem>
        <staff>2</staff>
        <notations>
          <slur bezier-x="21" bezier-y="14" default-x="10" default-y="17" number="1" placement="above" type="start"/>
          <technical>
            <fingering default-x="-80" default-y="-56" placement="below">3</fingering>
          </technical>
        </notations>
      </note>
      <note default-x="81">
        <pitch>
          <step>G</step>
          <octave>3</octave>
        </pitch>
        <duration>8</duration>
        <voice>2</voice>
        <type>quarter</type>
        <stem default-y="-45">down</stem>
        <staff>2</staff>
        <notations>
          <slur bezier-x="-16" bezier-y="20" default-x="10" default-y="6" number="1" type="stop"/>
          <technical>
            <fingering default-x="-85" default-y="-55" placement="below">5</fingering>
          </technical>
        </notations>
      </note>
      <note default-x="156">
        <rest/>
        <duration>8</duration>
        <voice>2</voice>
        <type>quarter</type>
        <staff>2</staff>
      </note>
    </measure>
    <!--=======================================================-->
    <measure number="5" width="327">
      <print new-system="yes">
        <system-layout>
          <system-distance>81</system-distance>
        </system-layout>
        <staff-layout number="2">
          <staff-distance>61</staff-distance>
        </staff-layout>
      </print>
      <note default-x="85">
        <pitch>
          <step>D</step>
          <octave>5</octave>
        </pitch>
        <duration>12</duration>
        <voice>1</voice>
        <type>quarter</type>
        <dot/>
        <stem default-y="-50">down</stem>
        <staff>1</staff>
        <notations>
          <technical>
            <fingering default-x="-10" default-y="11" placement="above">5</fingering>
          </technical>
        </notations>
      </note>
      <note default-x="192">
        <pitch>
          <step>B</step>
          <octave>4</octave>
        </pitch>
        <duration>4</duration>
        <voice>1</voice>
        <type>eighth</type>
        <stem default-y="-61">down</stem>
        <staff>1</staff>
        <notations>
          <technical>
            <fingering default-x="-20" default-y="11" placement="above">3</fingering>
          </technical>
        </notations>
      </note>
      <note default-x="237">
        <pitch>
          <step>B</step>
          <octave>4</octave>
        </pitch>
        <duration>4</duration>
        <voice>1</voice>
        <type>eighth</type>
        <stem default-y="-60.5">down</stem>
        <staff>1</staff>
        <beam number="1">begin</beam>
        <notations>
          <technical>
            <fingering default-x="-24" default-y="11" placement="above">3</fingering>
          </technical>
        </notations>
      </note>
      <note default-x="281">
        <pitch>
          <step>D</step>
          <octave>5</octave>
        </pitch>
        <duration>4</duration>
        <voice>1</voice>
        <type>eighth</type>
        <stem default-y="-55">down</stem>
        <staff>1</staff>
        <beam number="1">end</beam>
        <notations>
          <technical>
            <fingering default-x="-27" default-y="10" placement="above">5</fingering>
          </technical>
        </notations>
      </note>
      <backup>
        <duration>24</duration>
      </backup>
      <note default-x="85">
        <pitch>
          <step>B</step>
          <octave>3</octave>
        </pitch>
        <duration>8</duration>
        <voice>2</voice>
        <type>quarter</type>
        <stem default-y="-33.5">down</stem>
        <staff>2</staff>
        <notations>
          <slur bezier-x="22" bezier-y="15" default-x="8" default-y="17" number="1" placement="above" type="start"/>
          <technical>
            <fingering default-x="-10" default-y="-56" placement="below">3</fingering>
          </technical>
        </notations>
      </note>
      <note default-x="157">
        <pitch>
          <step>G</step>
          <octave>3</octave>
        </pitch>
        <duration>8</duration>
        <voice>2</voice>
        <type>quarter</type>
        <stem default-y="-45">down</stem>
        <staff>2</staff>
        <notations>
          <slur bezier-x="-17" bezier-y="21" default-x="8" default-y="5" number="1" type="stop"/>
          <technical>
            <fingering default-x="-16" default-y="-56" placement="below">5</fingering>
          </technical>
        </notations>
      </note>
      <note default-x="237">
        <rest/>
        <duration>8</duration>
        <voice>2</voice>
        <type>quarter</type>
        <staff>2</staff>
      </note>
    </measure>
    <!--=======================================================-->
    <measure number="6" width="257">
      <note default-x="15">
        <pitch>
          <step>D</step>
          <octave>5</octave>
        </pitch>
        <duration>12</duration>
        <voice>1</voice>
        <type>quarter</type>
        <dot/>
        <stem default-y="-50">down</stem>
        <staff>1</staff>
        <notations>
          <technical>
            <fingering default-x="-33" default-y="10" placement="above">5</fingering>
          </technical>
        </notations>
      </note>
      <note default-x="122">
        <pitch>
          <step>B</step>
          <octave>4</octave>
        </pitch>
        <duration>4</duration>
        <voice>1</voice>
        <type>eighth</type>
        <stem default-y="-61">down</stem>
        <staff>1</staff>
        <notations>
          <technical>
            <fingering default-x="-43" default-y="10" placement="above">3</fingering>
          </technical>
        </notations>
      </note>
      <note default-x="166">
        <pitch>
          <step>B</step>
          <octave>4</octave>
        </pitch>
        <duration>4</duration>
        <voice>1</voice>
        <type>eighth</type>
        <stem default-y="-60.5">down</stem>
        <staff>1</staff>
        <beam number="1">begin</beam>
        <notations>
          <technical>
            <fingering default-x="-47" default-y="10" placement="above">3</fingering>
          </technical>
        </notations>
      </note>
      <note default-x="211">
        <pitch>
          <step>D</step>
          <octave>5</octave>
        </pitch>
        <duration>4</duration>
        <voice>1</voice>
        <type>eighth</type>
        <stem default-y="-55">down</stem>
        <staff>1</staff>
        <beam number="1">end</beam>
        <notations>
          <technical>
            <fingering default-x="-50" default-y="11" placement="above">5</fingering>
          </technical>
        </notations>
      </note>
      <backup>
        <duration>24</duration>
      </backup>
      <note default-x="15">
        <pitch>
          <step>B</step>
          <octave>3</octave>
        </pitch>
        <duration>8</duration>
        <voice>2</voice>
        <type>quarter</type>
        <stem default-y="-33.5">down</stem>
        <staff>2</staff>
        <notations>
          <slur bezier-x="22" bezier-y="15" default-x="10" default-y="15" number="1" placement="above" type="start"/>
          <technical>
            <fingering default-x="-34" default-y="-56" placement="below">3</fingering>
          </technical>
        </notations>
      </note>
      <note default-x="86">
        <pitch>
          <step>G</step>
          <octave>3</octave>
        </pitch>
        <duration>8</duration>
        <voice>2</voice>
        <type>quarter</type>
        <stem default-y="-45">down</stem>
        <staff>2</staff>
        <notations>
          <slur bezier-x="-17" bezier-y="21" default-x="9" default-y="3" number="1" type="stop"/>
          <technical>
            <fingering default-x="-39" default-y="-56" placement="below">5</fingering>
          </technical>
        </notations>
      </note>
      <note default-x="167">
        <rest/>
        <duration>8</duration>
        <voice>2</voice>
        <type>quarter</type>
        <staff>2</staff>
      </note>
    </measure>
    <!--=======================================================-->
    <measure number="7" width="232">
      <note default-x="14">
        <pitch>
          <step>C</step>
          <octave>5</octave>
        </pitch>
        <duration>8</duration>
        <voice>1</voice>
        <type>quarter</type>
        <stem default-y="-56">down</stem>
        <staff>1</staff>
        <notations>
          <technical>
            <fingering default-x="-57" default-y="13" placement="above">4</fingering>
          </technical>
        </notations>
      </note>
      <note default-x="87">
        <pitch>
          <step>D</step>
          <octave>5</octave>
        </pitch>
        <duration>8</duration>
        <voice>1</voice>
        <type>quarter</type>
        <stem default-y="-50">down</stem>
        <staff>1</staff>
        <notations>
          <technical>
            <fingering default-x="-62" default-y="13" placement="above">5</fingering>
          </technical>
        </notations>
      </note>
      <note default-x="158">
        <pitch>
          <step>C</step>
          <octave>5</octave>
        </pitch>
        <duration>8</duration>
        <voice>1</voice>
        <type>quarter</type>
        <stem default-y="-56">down</stem>
        <staff>1</staff>
        <notations>
          <technical>
            <fingering default-x="-70" default-y="11" placement="above">4</fingering>
          </technical>
        </notations>
      </note>
      <backup>
        <duration>24</duration>
      </backup>
      <note default-x="14">
        <pitch>
          <step>A</step>
          <octave>3</octave>
        </pitch>
        <duration>8</duration>
        <voice>2</voice>
        <type>quarter</type>
        <stem default-y="-39">down</stem>
        <staff>2</staff>
        <notations>
          <technical>
            <fingering default-x="-57" default-y="-56" placement="below">4</fingering>
          </technical>
        </notations>
      </note>
      <note default-x="87">
        <pitch>
          <step>B</step>
          <octave>3</octave>
        </pitch>
        <duration>8</duration>
        <voice>2</voice>
        <type>quarter</type>
        <stem default-y="-33.5">down</stem>
        <staff>2</staff>
        <notations>
          <technical>
            <fingering default-x="-63" default-y="-56" placement="below">3</fingering>
          </technical>
        </notations>
      </note>
      <note default-x="158">
        <pitch>
          <step>A</step>
          <octave>3</octave>
        </pitch>
        <duration>8</duration>
        <voice>2</voice>
        <type>quarter</type>
        <stem default-y="-39">down</stem>
        <staff>2</staff>
        <notations>
          <technical>
            <fingering default-x="-70" default-y="-56" placement="below">4</fingering>
          </technical>
        </notations>
      </note>
    </measure>
    <!--=======================================================-->
    <measure number="8" width="256">
      <note default-x="14">
        <pitch>
          <step>B</step>
          <octave>4</octave>
        </pitch>
        <duration>12</duration>
        <voice>1</voice>
        <type>quarter</type>
        <dot/>
        <stem default-y="-61">down</stem>
        <staff>1</staff>
        <notations>
          <technical>
            <fingering default-x="-78" default-y="13" placement="above">3</fingering>
          </technical>
        </notations>
      </note>
      <note default-x="122">
        <pitch>
          <step>B</step>
          <octave>4</octave>
        </pitch>
        <duration>4</duration>
        <voice>1</voice>
        <type>eighth</type>
        <stem default-y="-61">down</stem>
        <staff>1</staff>
        <notations>
          <technical>
            <fingering default-x="-87" default-y="11" placement="above">3</fingering>
          </technical>
        </notations>
      </note>
      <note default-x="166">
        <pitch>
          <step>B</step>
          <octave>4</octave>
        </pitch>
        <duration>4</duration>
        <voice>1</voice>
        <type>eighth</type>
        <stem default-y="-60.5">down</stem>
        <staff>1</staff>
        <beam number="1">begin</beam>
        <notations>
          <technical>
            <fingering default-x="-92" default-y="11" placement="above">3</fingering>
          </technical>
        </notations>
      </note>
      <note default-x="211">
        <pitch>
          <step>C</step>
          <octave>5</octave>
        </pitch>
        <duration>4</duration>
        <voice>1</voice>
        <type>eighth</type>
        <stem default-y="-55">down</stem>
        <staff>1</staff>
        <beam number="1">end</beam>
        <notations>
          <technical>
            <fingering default-x="-96" default-y="13" placement="above">4</fingering>
          </technical>
        </notations>
      </note>
      <backup>
        <duration>24</duration>
      </backup>
      <note default-x="14">
        <pitch>
          <step>G</step>
          <octave>3</octave>
        </pitch>
        <duration>8</duration>
        <voice>2</voice>
        <type>quarter</type>
        <stem default-y="-45">down</stem>
        <staff>2</staff>
        <notations>
          <slur bezier-x="15" bezier-y="24" default-x="8" default-y="6" number="1" placement="above" type="start"/>
          <technical>
            <fingering default-x="-77" default-y="-56" placement="below">5</fingering>
          </technical>
        </notations>
      </note>
      <note default-x="86">
        <pitch>
          <step>D</step>
          <octave>4</octave>
        </pitch>
        <duration>8</duration>
        <voice>2</voice>
        <type>quarter</type>
        <stem default-y="-22.5">down</stem>
        <staff>2</staff>
        <notations>
          <slur bezier-x="-24" bezier-y="12" default-x="9" default-y="27" number="1" type="stop"/>
          <technical>
            <fingering default-x="-84" default-y="-56" placement="below">1</fingering>
          </technical>
        </notations>
      </note>
      <note default-x="166">
        <rest/>
        <duration>8</duration>
        <voice>2</voice>
        <type>quarter</type>
        <staff>2</staff>
      </note>
    </measure>
    <!--=======================================================-->
    <measure number="9" width="328">
      <print new-system="yes">
        <system-layout>
          <system-distance>94</system-distance>
        </system-layout>
        <staff-layout number="2">
          <staff-distance>61</staff-distance>
        </staff-layout>
      </print>
      <note default-x="87">
        <pitch>
          <step>A</step>
          <octave>4</octave>
        </pitch>
        <duration>12</duration>
        <voice>1</voice>
        <type>quarter</type>
        <dot/>
        <stem default-y="12">up</stem>
        <staff>1</staff>
        <notations>
          <technical>
            <fingering default-x="-13" default-y="12" placement="above">2</fingering>
          </technical>
        </notations>
      </note>
      <note default-x="194">
        <pitch>
          <step>A</step>
          <octave>4</octave>
        </pitch>
        <duration>4</duration>
        <voice>1</voice>
        <type>eighth</type>
        <stem default-y="12">up</stem>
        <staff>1</staff>
        <notations>
          <technical>
            <fingering default-x="-22" default-y="11" placement="above">2</fingering>
          </technical>
        </notations>
      </note>
      <note default-x="238">
        <pitch>
          <step>A</step>
          <octave>4</octave>
        </pitch>
        <duration>4</duration>
        <voice>1</voice>
        <type>eighth</type>
        <stem default-y="11">up</stem>
        <staff>1</staff>
        <beam number="1">begin</beam>
        <notations>
          <technical>
            <fingering default-x="-24" default-y="17" placement="above">2</fingering>
          </technical>
        </notations>
      </note>
      <note default-x="282">
        <pitch>
          <step>B</step>
          <octave>4</octave>
        </pitch>
        <duration>4</duration>
        <voice>1</voice>
        <type>eighth</type>
        <stem default-y="16.5">up</stem>
        <staff>1</staff>
        <beam number="1">end</beam>
        <notations>
          <technical>
            <fingering default-x="-28" default-y="25" placement="above">3</fingering>
          </technical>
        </notations>
      </note>
      <backup>
        <duration>24</duration>
      </backup>
      <note default-x="87">
        <pitch>
          <step>C</step>
          <octave>4</octave>
        </pitch>
        <duration>8</duration>
        <voice>2</voice>
        <type>quarter</type>
        <stem default-y="-28">down</stem>
        <staff>2</staff>
        <notations>
          <slur bezier-x="18" bezier-y="20" default-x="7" default-y="19" number="1" placement="above" type="start"/>
          <technical>
            <fingering default-x="-10" default-y="-58" placement="below">2</fingering>
          </technical>
        </notations>
      </note>
      <note default-x="159">
        <pitch>
          <step>D</step>
          <octave>4</octave>
        </pitch>
        <duration>8</duration>
        <voice>2</voice>
        <type>quarter</type>
        <stem default-y="-23">down</stem>
        <staff>2</staff>
        <notations>
          <slur bezier-x="-20" bezier-y="16" default-x="7" default-y="26" number="1" type="stop"/>
          <technical>
            <fingering default-x="-16" default-y="-57" placement="below">1</fingering>
          </technical>
        </notations>
      </note>
      <note default-x="239">
        <rest/>
        <duration>8</duration>
        <voice>2</voice>
        <type>quarter</type>
        <staff>2</staff>
      </note>
    </measure>
    <!--=======================================================-->
    <measure number="10" width="243">
      <note default-x="15">
        <pitch>
          <step>G</step>
          <octave>4</octave>
        </pitch>
        <duration>12</duration>
        <voice>1</voice>
        <type>quarter</type>
        <dot/>
        <stem default-y="6">up</stem>
        <staff>1</staff>
        <notations>
          <technical>
            <fingering default-x="-34" default-y="10" placement="above">1</fingering>
          </technical>
        </notations>
      </note>
      <note default-x="116">
        <pitch>
          <step>B</step>
          <octave>4</octave>
        </pitch>
        <duration>4</duration>
        <voice>1</voice>
        <type>eighth</type>
        <stem default-y="-61">down</stem>
        <staff>1</staff>
        <notations>
          <technical>
            <fingering default-x="-43" default-y="10" placement="above">3</fingering>
          </technical>
        </notations>
      </note>
      <note default-x="158">
        <pitch>
          <step>B</step>
          <octave>4</octave>
        </pitch>
        <duration>4</duration>
        <voice>1</voice>
        <type>eighth</type>
        <stem default-y="-60">down</stem>
        <staff>1</staff>
        <beam number="1">begin</beam>
        <notations>
          <technical>
            <fingering default-x="-47" default-y="11" placement="above">3</fingering>
          </technical>
        </notations>
      </note>
      <note default-x="200">
        <pitch>
          <step>C</step>
          <octave>5</octave>
        </pitch>
        <duration>4</duration>
        <voice>1</voice>
        <type>eighth</type>
        <stem default-y="-55">down</stem>
        <staff>1</staff>
        <beam number="1">end</beam>
        <notations>
          <technical>
            <fingering default-x="-51" default-y="11" placement="above">4</fingering>
          </technical>
        </notations>
      </note>
      <backup>
        <duration>24</duration>
      </backup>
      <note default-x="15">
        <pitch>
          <step>B</step>
          <octave>3</octave>
        </pitch>
        <duration>8</duration>
        <voice>2</voice>
        <type>quarter</type>
        <stem default-y="-34">down</stem>
        <staff>2</staff>
        <notations>
          <slur bezier-x="16" bezier-y="20" default-x="6" default-y="11" number="1" placement="above" type="start"/>
          <technical>
            <fingering default-x="-34" default-y="-57" placement="below">3</fingering>
          </technical>
        </notations>
      </note>
      <note default-x="83">
        <pitch>
          <step>D</step>
          <octave>4</octave>
        </pitch>
        <duration>8</duration>
        <voice>2</voice>
        <type>quarter</type>
        <stem default-y="-23">down</stem>
        <staff>2</staff>
        <notations>
          <slur bezier-x="-21" bezier-y="14" default-x="5" default-y="22" number="1" type="stop"/>
          <technical>
            <fingering default-x="-39" default-y="-59" placement="below">1</fingering>
          </technical>
        </notations>
      </note>
      <direction placement="above">
        <direction-type>
          <dynamics default-x="168" default-y="24" halign="center">
            <pp/>
          </dynamics>
        </direction-type>
        <staff>2</staff>
        <sound dynamics="40"/>
      </direction>
      <note default-x="158">
        <rest/>
        <duration>8</duration>
        <voice>2</voice>
        <type>quarter</type>
        <staff>2</staff>
      </note>
    </measure>
    <!--=======================================================-->
    <measure number="11" width="258">
      <note default-x="17">
        <pitch>
          <step>A</step>
          <octave>4</octave>
        </pitch>
        <duration>12</duration>
        <voice>1</voice>
        <type>quarter</type>
        <dot/>
        <stem default-y="12">up</stem>
        <staff>1</staff>
        <notations>
          <technical>
            <fingering default-x="-58" default-y="12" placement="above">2</fingering>
          </technical>
        </notations>
      </note>
      <note default-x="123">
        <pitch>
          <step>A</step>
          <octave>4</octave>
        </pitch>
        <duration>4</duration>
        <voice>1</voice>
        <type>eighth</type>
        <stem default-y="12">up</stem>
        <staff>1</staff>
        <notations>
          <technical>
            <fingering default-x="-69" default-y="11" placement="above">2</fingering>
          </technical>
        </notations>
      </note>
      <note default-x="168">
        <pitch>
          <step>A</step>
          <octave>4</octave>
        </pitch>
        <duration>4</duration>
        <voice>1</voice>
        <type>eighth</type>
        <stem default-y="11">up</stem>
        <staff>1</staff>
        <beam number="1">begin</beam>
        <notations>
          <technical>
            <fingering default-x="-70" default-y="17" placement="above">2</fingering>
          </technical>
        </notations>
      </note>
      <note default-x="212">
        <pitch>
          <step>B</step>
          <octave>4</octave>
        </pitch>
        <duration>4</duration>
        <voice>1</voice>
        <type>eighth</type>
        <stem default-y="16.5">up</stem>
        <staff>1</staff>
        <beam number="1">end</beam>
        <notations>
          <technical>
            <fingering default-x="-74" default-y="25" placement="above">3</fingering>
          </technical>
        </notations>
      </note>
      <backup>
        <duration>24</duration>
      </backup>
      <note default-x="17">
        <pitch>
          <step>C</step>
          <octave>4</octave>
        </pitch>
        <duration>8</duration>
        <voice>2</voice>
        <type>quarter</type>
        <stem default-y="-28">down</stem>
        <staff>2</staff>
        <notations>
          <slur bezier-x="18" bezier-y="20" default-x="5" default-y="19" number="1" placement="above" type="start"/>
          <technical>
            <fingering default-x="-56" default-y="-59" placement="below">2</fingering>
          </technical>
        </notations>
      </note>
      <note default-x="88">
        <pitch>
          <step>D</step>
          <octave>4</octave>
        </pitch>
        <duration>8</duration>
        <voice>2</voice>
        <type>quarter</type>
        <stem default-y="-23">down</stem>
        <staff>2</staff>
        <notations>
          <slur bezier-x="-21" bezier-y="16" default-x="5" default-y="26" number="1" type="stop"/>
          <technical>
            <fingering default-x="-62" default-y="-59" placement="below">1</fingering>
          </technical>
        </notations>
      </note>
      <note default-x="168">
        <rest/>
        <duration>8</duration>
        <voice>2</voice>
        <type>quarter</type>
        <staff>2</staff>
      </note>
    </measure>
    <!--=======================================================-->
    <measure number="12" width="243">
      <note default-x="14">
        <pitch>
          <step>G</step>
          <octave>4</octave>
        </pitch>
        <duration>12</duration>
        <voice>1</voice>
        <type>quarter</type>
        <dot/>
        <stem default-y="6">up</stem>
        <staff>1</staff>
        <notations>
          <technical>
            <fingering default-x="-78" default-y="11" placement="above">1</fingering>
          </technical>
        </notations>
      </note>
      <direction placement="below">
        <direction-type>
          <wedge default-y="-77" relative-x="7" type="crescendo"/>
        </direction-type>
        <staff>1</staff>
      </direction>
      <note default-x="116">
        <pitch>
          <step>B</step>
          <octave>4</octave>
        </pitch>
        <duration>4</duration>
        <voice>1</voice>
        <type>eighth</type>
        <stem default-y="-61">down</stem>
        <staff>1</staff>
        <notations>
          <technical>
            <fingering default-x="-88" default-y="11" placement="above">3</fingering>
          </technical>
        </notations>
      </note>
      <note default-x="158">
        <pitch>
          <step>B</step>
          <octave>4</octave>
        </pitch>
        <duration>4</duration>
        <voice>1</voice>
        <type>eighth</type>
        <stem default-y="-60">down</stem>
        <staff>1</staff>
        <beam number="1">begin</beam>
        <notations>
          <technical>
            <fingering default-x="-92" default-y="11" placement="above">3</fingering>
          </technical>
        </notations>
      </note>
      <direction>
        <direction-type>
          <wedge spread="16" type="stop"/>
        </direction-type>
        <staff>1</staff>
      </direction>
      <note default-x="200">
        <pitch>
          <step>D</step>
          <octave>5</octave>
        </pitch>
        <duration>4</duration>
        <voice>1</voice>
        <type>eighth</type>
        <stem default-y="-55">down</stem>
        <staff>1</staff>
        <beam number="1">end</beam>
        <notations>
          <technical>
            <fingering default-x="-95" default-y="13" placement="above">5</fingering>
          </technical>
        </notations>
      </note>
      <backup>
        <duration>24</duration>
      </backup>
      <note default-x="14">
        <pitch>
          <step>B</step>
          <octave>3</octave>
        </pitch>
        <duration>8</duration>
        <voice>2</voice>
        <type>quarter</type>
        <stem default-y="-34">down</stem>
        <staff>2</staff>
        <notations>
          <slur bezier-x="16" bezier-y="21" default-x="7" default-y="11" number="1" placement="above" type="start"/>
          <technical>
            <fingering default-x="-79" default-y="-59" placement="below">3</fingering>
          </technical>
        </notations>
      </note>
      <note default-x="82">
        <pitch>
          <step>D</step>
          <octave>4</octave>
        </pitch>
        <duration>8</duration>
        <voice>2</voice>
        <type>quarter</type>
        <stem default-y="-23">down</stem>
        <staff>2</staff>
        <notations>
          <slur bezier-x="-21" bezier-y="15" default-x="7" default-y="22" number="1" type="stop"/>
          <technical>
            <fingering default-x="-84" default-y="-59" placement="below">1</fingering>
          </technical>
        </notations>
      </note>
      <note default-x="159">
        <rest/>
        <duration>8</duration>
        <voice>2</voice>
        <type>quarter</type>
        <staff>2</staff>
      </note>
    </measure>
    <!--=======================================================-->
    <measure number="13" width="344">
      <print new-system="yes">
        <system-layout>
          <system-distance>96</system-distance>
        </system-layout>
        <staff-layout number="2">
          <staff-distance>70</staff-distance>
        </staff-layout>
      </print>
      <direction placement="below">
        <direction-type>
          <dynamics default-x="81" default-y="-80" halign="center">
            <mf/>
          </dynamics>
        </direction-type>
        <staff>1</staff>
        <sound dynamics="83"/>
      </direction>
      <note default-x="85">
        <pitch>
          <step>D</step>
          <octave>5</octave>
        </pitch>
        <duration>12</duration>
        <voice>1</voice>
        <type>quarter</type>
        <dot/>
        <stem default-y="-50">down</stem>
        <staff>1</staff>
        <notations>
          <technical>
            <fingering default-x="-10" default-y="11" placement="above">5</fingering>
          </technical>
        </notations>
      </note>
      <note default-x="200">
        <pitch>
          <step>B</step>
          <octave>4</octave>
        </pitch>
        <duration>4</duration>
        <voice>1</voice>
        <type>eighth</type>
        <stem default-y="-61">down</stem>
        <staff>1</staff>
        <notations>
          <technical>
            <fingering default-x="-20" default-y="10" placement="above">3</fingering>
          </technical>
        </notations>
      </note>
      <note default-x="247">
        <pitch>
          <step>B</step>
          <octave>4</octave>
        </pitch>
        <duration>4</duration>
        <voice>1</voice>
        <type>eighth</type>
        <stem default-y="-60">down</stem>
        <staff>1</staff>
        <beam number="1">begin</beam>
        <notations>
          <technical>
            <fingering default-x="-25" default-y="10" placement="above">3</fingering>
          </technical>
        </notations>
      </note>
      <note default-x="294">
        <pitch>
          <step>D</step>
          <octave>5</octave>
        </pitch>
        <duration>4</duration>
        <voice>1</voice>
        <type>eighth</type>
        <stem default-y="-55">down</stem>
        <staff>1</staff>
        <beam number="1">end</beam>
        <notations>
          <technical>
            <fingering default-x="-28" default-y="10" placement="above">5</fingering>
          </technical>
        </notations>
      </note>
      <backup>
        <duration>24</duration>
      </backup>
      <note default-x="85">
        <pitch>
          <step>B</step>
          <octave>3</octave>
        </pitch>
        <duration>8</duration>
        <voice>2</voice>
        <type>quarter</type>
        <stem default-y="-33.5">down</stem>
        <staff>2</staff>
        <notations>
          <slur bezier-x="24" bezier-y="13" default-x="8" default-y="16" number="1" placement="above" type="start"/>
          <technical>
            <fingering default-x="-10" default-y="-56" placement="below">3</fingering>
          </technical>
        </notations>
      </note>
      <note default-x="161">
        <pitch>
          <step>G</step>
          <octave>3</octave>
        </pitch>
        <duration>8</duration>
        <voice>2</voice>
        <type>quarter</type>
        <stem default-y="-44.5">down</stem>
        <staff>2</staff>
        <notations>
          <slur bezier-x="-18" bezier-y="22" default-x="9" default-y="4" number="1" type="stop"/>
          <technical>
            <fingering default-x="-16" default-y="-55" placement="below">5</fingering>
          </technical>
        </notations>
      </note>
      <note default-x="248">
        <rest/>
        <duration>8</duration>
        <voice>2</voice>
        <type>quarter</type>
        <staff>2</staff>
      </note>
    </measure>
    <!--=======================================================-->
    <measure number="14" width="273">
      <note default-x="14">
        <pitch>
          <step>D</step>
          <octave>5</octave>
        </pitch>
        <duration>12</duration>
        <voice>1</voice>
        <type>quarter</type>
        <dot/>
        <stem default-y="-50">down</stem>
        <staff>1</staff>
        <notations>
          <technical>
            <fingering default-x="-34" default-y="10" placement="above">5</fingering>
          </technical>
        </notations>
      </note>
      <note default-x="129">
        <pitch>
          <step>B</step>
          <octave>4</octave>
        </pitch>
        <duration>4</duration>
        <voice>1</voice>
        <type>eighth</type>
        <stem default-y="-61">down</stem>
        <staff>1</staff>
        <notations>
          <technical>
            <fingering default-x="-45" default-y="10" placement="above">3</fingering>
          </technical>
        </notations>
      </note>
      <note default-x="177">
        <pitch>
          <step>B</step>
          <octave>4</octave>
        </pitch>
        <duration>4</duration>
        <voice>1</voice>
        <type>eighth</type>
        <stem default-y="-60">down</stem>
        <staff>1</staff>
        <beam number="1">begin</beam>
        <notations>
          <technical>
            <fingering default-x="-50" default-y="10" placement="above">3</fingering>
          </technical>
        </notations>
      </note>
      <note default-x="224">
        <pitch>
          <step>D</step>
          <octave>5</octave>
        </pitch>
        <duration>4</duration>
        <voice>1</voice>
        <type>eighth</type>
        <stem default-y="-55">down</stem>
        <staff>1</staff>
        <beam number="1">end</beam>
        <notations>
          <technical>
            <fingering default-x="-53" default-y="10" placement="above">5</fingering>
          </technical>
        </notations>
      </note>
      <backup>
        <duration>24</duration>
      </backup>
      <note default-x="14">
        <pitch>
          <step>B</step>
          <octave>3</octave>
        </pitch>
        <duration>8</duration>
        <voice>2</voice>
        <type>quarter</type>
        <stem default-y="-33.5">down</stem>
        <staff>2</staff>
        <notations>
          <slur bezier-x="23" bezier-y="16" default-x="8" default-y="17" number="1" placement="above" type="start"/>
          <technical>
            <fingering default-x="-35" default-y="-55" placement="below">3</fingering>
          </technical>
        </notations>
      </note>
      <note default-x="91">
        <pitch>
          <step>G</step>
          <octave>3</octave>
        </pitch>
        <duration>8</duration>
        <voice>2</voice>
        <type>quarter</type>
        <stem default-y="-44.5">down</stem>
        <staff>2</staff>
        <notations>
          <slur bezier-x="-18" bezier-y="22" default-x="8" default-y="5" number="1" type="stop"/>
          <technical>
            <fingering default-x="-41" default-y="-56" placement="below">5</fingering>
          </technical>
        </notations>
      </note>
      <note default-x="178">
        <rest/>
        <duration>8</duration>
        <voice>2</voice>
        <type>quarter</type>
        <staff>2</staff>
      </note>
    </measure>
    <!--=======================================================-->
    <measure number="15" width="270">
      <note default-x="16">
        <pitch>
          <step>C</step>
          <octave>5</octave>
        </pitch>
        <duration>4</duration>
        <voice>1</voice>
        <type>eighth</type>
        <stem default-y="-55">down</stem>
        <staff>1</staff>
        <beam number="1">begin</beam>
        <notations>
          <technical>
            <fingering default-x="-60" default-y="10" placement="above">4</fingering>
          </technical>
        </notations>
      </note>
      <direction placement="above">
        <direction-type>
          <words default-y="26" font-style="italic" font-weight="bold" relative-x="-5">rit.</words>
        </direction-type>
        <staff>1</staff>
      </direction>
      <direction placement="below">
        <direction-type>
          <wedge default-y="-74" spread="16" type="diminuendo"/>
        </direction-type>
        <staff>1</staff>
      </direction>
      <note default-x="65">
        <pitch>
          <step>D</step>
          <octave>5</octave>
        </pitch>
        <duration>4</duration>
        <voice>1</voice>
        <type>eighth</type>
        <stem default-y="-49.5">down</stem>
        <staff>1</staff>
        <beam number="1">end</beam>
        <notations>
          <technical>
            <fingering default-x="-64" default-y="10" placement="above">5</fingering>
          </technical>
        </notations>
      </note>
      <note default-x="113">
        <pitch>
          <step>B</step>
          <octave>4</octave>
        </pitch>
        <duration>8</duration>
        <voice>1</voice>
        <type>quarter</type>
        <stem default-y="-61">down</stem>
        <staff>1</staff>
      </note>
      <note default-x="191">
        <pitch>
          <step>A</step>
          <octave>4</octave>
        </pitch>
        <duration>8</duration>
        <voice>1</voice>
        <type>quarter</type>
        <stem default-y="12">up</stem>
        <staff>1</staff>
        <notations>
          <technical>
            <fingering default-x="-78" default-y="10" placement="above">2</fingering>
          </technical>
        </notations>
      </note>
      <backup>
        <duration>24</duration>
      </backup>
      <note default-x="16">
        <pitch>
          <step>E</step>
          <octave>4</octave>
        </pitch>
        <duration>8</duration>
        <voice>2</voice>
        <type>quarter</type>
        <stem default-y="-23">down</stem>
        <staff>2</staff>
        <notations>
          <technical>
            <fingering default-x="-59" default-y="-56" placement="below">1</fingering>
          </technical>
        </notations>
      </note>
      <note default-x="113">
        <pitch>
          <step>D</step>
          <octave>4</octave>
        </pitch>
        <duration>8</duration>
        <voice>2</voice>
        <type>quarter</type>
        <stem default-y="-23">down</stem>
        <staff>2</staff>
        <notations>
          <technical>
            <fingering default-x="-69" default-y="-56" placement="below">2</fingering>
          </technical>
        </notations>
      </note>
      <note default-x="191">
        <pitch>
          <step>C</step>
          <octave>4</octave>
        </pitch>
        <duration>8</duration>
        <voice>2</voice>
        <type>quarter</type>
        <stem default-y="-28">down</stem>
        <staff>2</staff>
        <notations>
          <technical>
            <fingering default-x="-76" default-y="-55" placement="below">3</fingering>
          </technical>
        </notations>
      </note>
    </measure>
    <!--=======================================================-->
    <measure number="16" width="185">
      <direction>
        <direction-type>
          <wedge relative-x="12" type="stop"/>
        </direction-type>
        <offset>8</offset>
        <staff>1</staff>
      </direction>
      <note default-x="15">
        <pitch>
          <step>G</step>
          <octave>4</octave>
        </pitch>
        <duration>24</duration>
        <voice>1</voice>
        <type>half</type>
        <dot/>
        <stem default-y="6">up</stem>
        <staff>1</staff>
        <notations>
          <technical>
            <fingering default-x="-83" default-y="10" placement="above">1</fingering>
          </technical>
        </notations>
      </note>
      <backup>
        <duration>24</duration>
      </backup>
      <note default-x="15">
        <pitch>
          <step>B</step>
          <octave>3</octave>
        </pitch>
        <duration>24</duration>
        <voice>2</voice>
        <type>half</type>
        <dot/>
        <stem default-y="-33.5">down</stem>
        <staff>2</staff>
        <notations>
          <technical>
            <fingering default-x="-85" default-y="-56" placement="below">4</fingering>
          </technical>
        </notations>
      </note>
      <barline location="right">
        <bar-style>light-heavy</bar-style>
      </barline>
    </measure>
  </part>
  <!--=========================================================-->
</score-partwise>
