<?xml version="1.0" encoding="UTF-8" standalone="no"?>
<!DOCTYPE score-partwise PUBLIC "-//Recordare//DTD MusicXML 3.0 Partwise//EN" "http://www.musicxml.org/dtds/partwise.dtd">
<score-partwise version="3.0">
  <movement-title>爬   城   墙</movement-title>
  <identification>
    <rights>?</rights>
    <encoding>
      <software>Finale 2014.5 for Mac</software>
      <software>Dolet 6.9 for Finale</software>
      <encoding-date>2017-03-31</encoding-date>
      <supports attribute="new-system" element="print" type="yes" value="yes"/>
      <supports attribute="new-page" element="print" type="yes" value="yes"/>
      <supports element="accidental" type="yes"/>
      <supports element="beam" type="yes"/>
      <supports element="stem" type="yes"/>
    </encoding>
  </identification>
  <defaults>
    <scaling>
      <millimeters>7.9551</millimeters>
      <tenths>40</tenths>
    </scaling>
    <page-layout>
      <page-height>1529</page-height>
      <page-width>1167</page-width>
      <page-margins type="both">
        <left-margin>50</left-margin>
        <right-margin>45</right-margin>
        <top-margin>50</top-margin>
        <bottom-margin>84</bottom-margin>
      </page-margins>
    </page-layout>
    <system-layout>
      <system-margins>
        <left-margin>0</left-margin>
        <right-margin>0</right-margin>
      </system-margins>
      <system-distance>87</system-distance>
      <top-system-distance>43</top-system-distance>
    </system-layout>
    <staff-layout>
      <staff-distance>42</staff-distance>
    </staff-layout>
    <appearance>
      <line-width type="stem">1.4583</line-width>
      <line-width type="beam">5</line-width>
      <line-width type="staff">1.4583</line-width>
      <line-width type="light barline">1.4583</line-width>
      <line-width type="heavy barline">5</line-width>
      <line-width type="leger">1.4583</line-width>
      <line-width type="ending">1.4583</line-width>
      <line-width type="wedge">1.4583</line-width>
      <line-width type="enclosure">1.4583</line-width>
      <line-width type="tuplet bracket">1.4583</line-width>
      <note-size type="grace">60</note-size>
      <note-size type="cue">60</note-size>
      <distance type="hyphen">60</distance>
      <distance type="beam">8</distance>
    </appearance>
    <music-font font-family="Maestro,engraved" font-size="22.6"/>
    <word-font font-family="Times New Roman" font-size="11.3"/>
  </defaults>
  <credit page="1">
    <credit-type>title</credit-type>
    <credit-words default-x="581" default-y="1440" font-size="22" halign="center" valign="top" xml:space="preserve">爬   城   墙</credit-words>
  </credit>
  <part-list>
    <score-part id="P1">
      <part-name print-object="no">MusicXML Part</part-name>
      <score-instrument id="P1-I1">
        <instrument-name>SmartMusic SoftSynth</instrument-name>
        <virtual-instrument/>
      </score-instrument>
      <midi-device>SmartMusic SoftSynth</midi-device>
      <midi-instrument id="P1-I1">
        <midi-channel>1</midi-channel>
        <midi-program>1</midi-program>
        <volume>80</volume>
        <pan>0</pan>
      </midi-instrument>
    </score-part>
  </part-list>
  <!--=========================================================-->
  <part id="P1">
    <measure number="1" width="330">
      <print>
        <system-layout>
          <top-system-distance>215</top-system-distance>
        </system-layout>
        <staff-layout number="2">
          <staff-distance>57</staff-distance>
        </staff-layout>
      </print>
      <attributes>
        <divisions>2</divisions>
        <key>
          <fifths>0</fifths>
          <mode>major</mode>
        </key>
        <time>
          <beats>4</beats>
          <beat-type>4</beat-type>
        </time>
        <staves>2</staves>
        <clef number="1">
          <sign>G</sign>
          <line>2</line>
        </clef>
        <clef number="2">
          <sign>G</sign>
          <line>2</line>
        </clef>
        <staff-details number="1">
          <staff-size>110</staff-size>
        </staff-details>
        <staff-details number="2">
          <staff-size>110</staff-size>
        </staff-details>
      </attributes>
      <direction directive="yes" placement="above">
        <direction-type>
          <words default-y="37" font-size="15.5" font-weight="bold" xml:space="preserve">Allegro  M.M. </words>
        </direction-type>
        <direction-type>
          <metronome font-family="EngraverTextT" font-size="15.5" font-weight="normal">
            <beat-unit>quarter</beat-unit>
            <per-minute>60-120</per-minute>
          </metronome>
        </direction-type>
        <staff>1</staff>
        <sound tempo="120"/>
      </direction>
      <note>
        <rest measure="yes"/>
        <duration>8</duration>
        <voice>1</voice>
        <staff>1</staff>
      </note>
      <backup>
        <duration>8</duration>
      </backup>
      <direction placement="above">
        <direction-type>
          <dynamics default-x="69" default-y="25" halign="center">
            <mf/>
          </dynamics>
        </direction-type>
        <staff>2</staff>
        <sound dynamics="83"/>
      </direction>
      <note default-x="93">
        <pitch>
          <step>C</step>
          <octave>4</octave>
        </pitch>
        <duration>2</duration>
        <voice>2</voice>
        <type>quarter</type>
        <stem default-y="-15.5">up</stem>
        <staff>2</staff>
        <notations>
          <technical>
            <fingering default-x="-10" default-y="-70" placement="below">5</fingering>
          </technical>
        </notations>
      </note>
      <note default-x="152">
        <pitch>
          <step>D</step>
          <octave>4</octave>
        </pitch>
        <duration>2</duration>
        <voice>2</voice>
        <type>quarter</type>
        <stem default-y="-10">up</stem>
        <staff>2</staff>
        <notations>
          <technical>
            <fingering default-x="-17" default-y="-66" placement="below">4</fingering>
          </technical>
        </notations>
      </note>
      <note default-x="211">
        <pitch>
          <step>E</step>
          <octave>4</octave>
        </pitch>
        <duration>2</duration>
        <voice>2</voice>
        <type>quarter</type>
        <stem default-y="-4">up</stem>
        <staff>2</staff>
        <notations>
          <technical>
            <fingering default-x="-22" default-y="-62" placement="below">3</fingering>
          </technical>
        </notations>
      </note>
      <note default-x="270">
        <pitch>
          <step>F</step>
          <octave>4</octave>
        </pitch>
        <duration>2</duration>
        <voice>2</voice>
        <type>quarter</type>
        <stem default-y="1">up</stem>
        <staff>2</staff>
        <notations>
          <technical>
            <fingering default-x="-27" default-y="-55" placement="below">2</fingering>
          </technical>
        </notations>
      </note>
    </measure>
    <!--=======================================================-->
    <measure number="2" width="248">
      <note default-x="14">
        <pitch>
          <step>G</step>
          <octave>4</octave>
        </pitch>
        <duration>2</duration>
        <voice>1</voice>
        <type>quarter</type>
        <stem default-y="6.5">up</stem>
        <staff>1</staff>
        <notations>
          <technical>
            <fingering default-x="-34" default-y="12" placement="above">2</fingering>
          </technical>
        </notations>
      </note>
      <note default-x="72">
        <pitch>
          <step>A</step>
          <octave>4</octave>
        </pitch>
        <duration>2</duration>
        <voice>1</voice>
        <type>quarter</type>
        <stem default-y="12">up</stem>
        <staff>1</staff>
        <notations>
          <technical>
            <fingering default-x="-40" default-y="13" placement="above">3</fingering>
          </technical>
        </notations>
      </note>
      <note default-x="130">
        <pitch>
          <step>B</step>
          <octave>4</octave>
        </pitch>
        <duration>2</duration>
        <voice>1</voice>
        <type>quarter</type>
        <stem default-y="-61">down</stem>
        <staff>1</staff>
        <notations>
          <technical>
            <fingering default-x="-45" default-y="13" placement="above">4</fingering>
          </technical>
        </notations>
      </note>
      <note default-x="189">
        <pitch>
          <step>C</step>
          <octave>5</octave>
        </pitch>
        <duration>2</duration>
        <voice>1</voice>
        <type>quarter</type>
        <stem default-y="-55.5">down</stem>
        <staff>1</staff>
        <notations>
          <technical>
            <fingering default-x="-49" default-y="14" placement="above">5</fingering>
          </technical>
        </notations>
      </note>
      <backup>
        <duration>8</duration>
      </backup>
      <note>
        <rest measure="yes"/>
        <duration>8</duration>
        <voice>2</voice>
        <staff>2</staff>
      </note>
    </measure>
    <!--=======================================================-->
    <measure number="3" width="248">
      <note default-x="14">
        <pitch>
          <step>G</step>
          <octave>4</octave>
        </pitch>
        <duration>2</duration>
        <voice>1</voice>
        <type>quarter</type>
        <stem default-y="6.5">up</stem>
        <staff>1</staff>
        <notations>
          <technical>
            <fingering default-x="-56" default-y="12" placement="above">2</fingering>
          </technical>
        </notations>
      </note>
      <note default-x="72">
        <pitch>
          <step>A</step>
          <octave>4</octave>
        </pitch>
        <duration>2</duration>
        <voice>1</voice>
        <type>quarter</type>
        <stem default-y="12">up</stem>
        <staff>1</staff>
        <notations>
          <technical>
            <fingering default-x="-62" default-y="13" placement="above">3</fingering>
          </technical>
        </notations>
      </note>
      <note default-x="130">
        <pitch>
          <step>G</step>
          <octave>4</octave>
        </pitch>
        <duration>2</duration>
        <voice>1</voice>
        <type>quarter</type>
        <stem default-y="6.5">up</stem>
        <staff>1</staff>
        <notations>
          <technical>
            <fingering default-x="-67" default-y="12" placement="above">2</fingering>
          </technical>
        </notations>
      </note>
      <note default-x="189">
        <pitch>
          <step>A</step>
          <octave>4</octave>
        </pitch>
        <duration>2</duration>
        <voice>1</voice>
        <type>quarter</type>
        <stem default-y="12">up</stem>
        <staff>1</staff>
        <notations>
          <technical>
            <fingering default-x="-73" default-y="12" placement="above">3</fingering>
          </technical>
        </notations>
      </note>
      <backup>
        <duration>8</duration>
      </backup>
      <note default-x="14">
        <pitch>
          <step>F</step>
          <octave>4</octave>
        </pitch>
        <duration>8</duration>
        <voice>2</voice>
        <type>whole</type>
        <staff>2</staff>
        <notations>
          <technical>
            <fingering default-x="-54" default-y="-56" placement="below">2</fingering>
          </technical>
        </notations>
      </note>
    </measure>
    <!--=======================================================-->
    <measure number="4" width="246">
      <note default-x="14">
        <pitch>
          <step>G</step>
          <octave>4</octave>
        </pitch>
        <duration>4</duration>
        <voice>1</voice>
        <type>half</type>
        <stem default-y="6.5">up</stem>
        <staff>1</staff>
        <notations>
          <slur bezier-x="23" bezier-y="20" default-x="20" default-y="-15" number="1" placement="above" type="start"/>
          <technical>
            <fingering default-x="-78" default-y="12" placement="above">2</fingering>
          </technical>
        </notations>
      </note>
      <note default-x="117">
        <pitch>
          <step>C</step>
          <octave>5</octave>
        </pitch>
        <duration>2</duration>
        <voice>1</voice>
        <type>quarter</type>
        <stem default-y="-55.5">down</stem>
        <staff>1</staff>
        <notations>
          <slur bezier-x="-27" bezier-y="12" default-x="7" default-y="-1" number="1" type="stop"/>
          <technical>
            <fingering default-x="-87" default-y="11" placement="above">5</fingering>
          </technical>
        </notations>
      </note>
      <note default-x="181">
        <rest/>
        <duration>2</duration>
        <voice>1</voice>
        <type>quarter</type>
        <staff>1</staff>
      </note>
      <backup>
        <duration>8</duration>
      </backup>
      <note default-x="14">
        <pitch>
          <step>E</step>
          <octave>4</octave>
        </pitch>
        <duration>6</duration>
        <voice>2</voice>
        <type>half</type>
        <dot/>
        <stem default-y="-4">up</stem>
        <staff>2</staff>
        <notations>
          <technical>
            <fingering default-x="-78" default-y="-60" placement="below">3</fingering>
          </technical>
        </notations>
      </note>
      <note default-x="181">
        <rest/>
        <duration>2</duration>
        <voice>2</voice>
        <type>quarter</type>
        <staff>2</staff>
      </note>
    </measure>
    <!--=======================================================-->
    <measure number="5" width="320">
      <print new-system="yes">
        <system-layout>
          <system-distance>78</system-distance>
        </system-layout>
        <staff-layout number="2">
          <staff-distance>57</staff-distance>
        </staff-layout>
      </print>
      <attributes>
        <clef number="2">
          <sign>F</sign>
          <line>4</line>
        </clef>
      </attributes>
      <note>
        <rest measure="yes"/>
        <duration>8</duration>
        <voice>1</voice>
        <staff>1</staff>
      </note>
      <backup>
        <duration>8</duration>
      </backup>
      <note default-x="57">
        <pitch>
          <step>C</step>
          <octave>3</octave>
        </pitch>
        <duration>2</duration>
        <voice>2</voice>
        <type>quarter</type>
        <stem default-y="12">up</stem>
        <staff>2</staff>
        <notations>
          <technical>
            <fingering default-x="-7" default-y="-56" placement="below">5</fingering>
          </technical>
        </notations>
      </note>
      <note default-x="122">
        <pitch>
          <step>D</step>
          <octave>3</octave>
        </pitch>
        <duration>2</duration>
        <voice>2</voice>
        <type>quarter</type>
        <stem default-y="-61">down</stem>
        <staff>2</staff>
        <notations>
          <technical>
            <fingering default-x="-12" default-y="-55" placement="below">4</fingering>
          </technical>
        </notations>
      </note>
      <note default-x="188">
        <pitch>
          <step>E</step>
          <octave>3</octave>
        </pitch>
        <duration>2</duration>
        <voice>2</voice>
        <type>quarter</type>
        <stem default-y="-56">down</stem>
        <staff>2</staff>
        <notations>
          <technical>
            <fingering default-x="-17" default-y="-56" placement="below">3</fingering>
          </technical>
        </notations>
      </note>
      <note default-x="253">
        <pitch>
          <step>F</step>
          <octave>3</octave>
        </pitch>
        <duration>2</duration>
        <voice>2</voice>
        <type>quarter</type>
        <stem default-y="-50">down</stem>
        <staff>2</staff>
        <notations>
          <technical>
            <fingering default-x="-24" default-y="-56" placement="below">2</fingering>
          </technical>
        </notations>
      </note>
    </measure>
    <!--=======================================================-->
    <measure number="6" width="278">
      <attributes>
        <clef number="1">
          <sign>F</sign>
          <line>4</line>
        </clef>
      </attributes>
      <note default-x="14">
        <pitch>
          <step>G</step>
          <octave>3</octave>
        </pitch>
        <duration>2</duration>
        <voice>1</voice>
        <type>quarter</type>
        <stem default-y="-45">down</stem>
        <staff>1</staff>
        <notations>
          <technical>
            <fingering default-x="-33" default-y="10" placement="above">2</fingering>
          </technical>
        </notations>
      </note>
      <note default-x="80">
        <pitch>
          <step>A</step>
          <octave>3</octave>
        </pitch>
        <duration>2</duration>
        <voice>1</voice>
        <type>quarter</type>
        <stem default-y="-39">down</stem>
        <staff>1</staff>
        <notations>
          <technical>
            <fingering default-x="-39" default-y="15" placement="above">3</fingering>
          </technical>
        </notations>
      </note>
      <note default-x="145">
        <pitch>
          <step>B</step>
          <octave>3</octave>
        </pitch>
        <duration>2</duration>
        <voice>1</voice>
        <type>quarter</type>
        <stem default-y="-34">down</stem>
        <staff>1</staff>
        <notations>
          <technical>
            <fingering default-x="-45" default-y="21" placement="above">4</fingering>
          </technical>
        </notations>
      </note>
      <note default-x="212">
        <pitch>
          <step>C</step>
          <octave>4</octave>
        </pitch>
        <duration>2</duration>
        <voice>1</voice>
        <type>quarter</type>
        <stem default-y="-28">down</stem>
        <staff>1</staff>
        <notations>
          <technical>
            <fingering default-x="-50" default-y="25" placement="above">5</fingering>
          </technical>
        </notations>
      </note>
      <backup>
        <duration>8</duration>
      </backup>
      <note>
        <rest measure="yes"/>
        <duration>8</duration>
        <voice>2</voice>
        <staff>2</staff>
      </note>
    </measure>
    <!--=======================================================-->
    <measure number="7" width="278">
      <note default-x="14">
        <pitch>
          <step>B</step>
          <octave>3</octave>
        </pitch>
        <duration>2</duration>
        <voice>1</voice>
        <type>quarter</type>
        <stem default-y="-34">down</stem>
        <staff>1</staff>
        <notations>
          <technical>
            <fingering default-x="-58" default-y="21" placement="above">4</fingering>
          </technical>
        </notations>
      </note>
      <note default-x="80">
        <pitch>
          <step>G</step>
          <octave>3</octave>
        </pitch>
        <duration>2</duration>
        <voice>1</voice>
        <type>quarter</type>
        <stem default-y="-45">down</stem>
        <staff>1</staff>
        <notations>
          <technical>
            <fingering default-x="-64" default-y="10" placement="above">2</fingering>
          </technical>
        </notations>
      </note>
      <note default-x="146">
        <pitch>
          <step>A</step>
          <octave>3</octave>
        </pitch>
        <duration>2</duration>
        <voice>1</voice>
        <type>quarter</type>
        <stem default-y="-39">down</stem>
        <staff>1</staff>
        <notations>
          <technical>
            <fingering default-x="-70" default-y="15" placement="above">3</fingering>
          </technical>
        </notations>
      </note>
      <note default-x="211">
        <pitch>
          <step>B</step>
          <octave>3</octave>
        </pitch>
        <duration>2</duration>
        <voice>1</voice>
        <type>quarter</type>
        <stem default-y="-34">down</stem>
        <staff>1</staff>
        <notations>
          <technical>
            <fingering default-x="-77" default-y="21" placement="above">4</fingering>
          </technical>
        </notations>
      </note>
      <backup>
        <duration>8</duration>
      </backup>
      <note default-x="14">
        <pitch>
          <step>F</step>
          <octave>3</octave>
        </pitch>
        <duration>8</duration>
        <voice>2</voice>
        <type>whole</type>
        <staff>2</staff>
        <notations>
          <technical>
            <fingering default-x="-55" default-y="-57" placement="below">2</fingering>
          </technical>
        </notations>
      </note>
    </measure>
    <!--=======================================================-->
    <measure number="8" width="196">
      <note default-x="17">
        <pitch>
          <step>C</step>
          <octave>4</octave>
        </pitch>
        <duration>8</duration>
        <voice>1</voice>
        <type>whole</type>
        <staff>1</staff>
        <notations>
          <technical>
            <fingering default-x="-81" default-y="27" placement="above">5</fingering>
          </technical>
        </notations>
      </note>
      <backup>
        <duration>8</duration>
      </backup>
      <note default-x="17">
        <pitch>
          <step>E</step>
          <octave>3</octave>
        </pitch>
        <duration>8</duration>
        <voice>2</voice>
        <type>whole</type>
        <staff>2</staff>
        <notations>
          <technical>
            <fingering default-x="-81" default-y="-57" placement="below">3</fingering>
          </technical>
        </notations>
      </note>
      <barline location="right">
        <bar-style>light-heavy</bar-style>
      </barline>
    </measure>
  </part>
  <!--=========================================================-->
</score-partwise>
